<svg xmlns="http://www.w3.org/2000/svg" viewBox="0 10.050000190734863 163.75 48.25" data-asc="0.951" width="163.75" height="48.25"><defs/><g fill="#31281b"><g transform="translate(0, 0)"><path d="M9.20 18.70Q8.65 19.25 8.65 20.67Q8.65 22.10 10.57 23.60Q12.50 25.10 14.78 26.10Q17.05 27.10 18.98 28.62Q20.90 30.15 20.90 31.80Q20.90 35.60 17.30 40.57Q13.70 45.55 9.85 48.30Q7.15 48.30 4.75 46.90Q2.35 45.50 0.85 43.15L0 41.80Q3.30 38.90 5.65 34.35L6.40 34.65Q6.10 35.65 6.10 37.27Q6.10 38.90 7.63 40.90Q9.15 42.90 11.15 43.65Q12.30 42.70 13.25 40.82Q14.20 38.95 14.20 37.60Q14.20 36.25 12.97 35.05Q11.75 33.85 10 32.92Q8.25 32.00 6.48 31.05Q4.70 30.10 3.48 28.87Q2.25 27.65 2.25 26.30Q2.25 23.20 5.30 19.37Q8.35 15.55 11.50 14.25Q14.25 15.00 17.43 15.00Q20.60 15.00 21.85 14.60L22.15 15.25Q20.80 17.05 20.05 20.00Q19.30 22.95 19.30 25.50L18.45 25.50Q17.85 24.00 17.45 21.70L15.95 20.80Q12.55 18.70 9.20 18.70ZM46.35 28.20Q46.35 30.85 45.42 35.80Q44.50 40.75 44.50 43.45Q46.90 40.75 48.70 35.15L49.50 35.35Q47.70 45.05 42.80 48.30Q37.30 48.30 37.30 43.75Q37.30 41.90 38.08 37.17Q38.85 32.45 38.85 30.20Q38.85 27.95 38.35 27.45Q36.50 29.50 35 34.90Q33.50 40.30 33.50 42.88Q33.50 45.45 33.90 47.55Q29.65 47.55 25.70 48.30L25.40 48.05Q26.40 44.60 26.40 33.82Q26.40 23.05 26.08 19.00Q25.75 14.95 24.85 12.55L25.80 12.20Q26.60 13.00 29.35 16.75Q31.05 14.60 33.65 12.80Q36.25 11.00 38.90 10.05L39.35 10.85Q36.30 12.75 35.08 15.87Q33.85 19.00 33.75 23.80L33.55 30.85Q33.25 32.55 32.65 34.85L33.45 34.90Q35.60 25.10 40.70 22.30Q46.35 22.30 46.35 28.20ZM62.20 26.60Q61.70 26.00 61.02 26.00Q60.35 26.00 59.70 26.25Q58.45 31.25 58.45 37.85Q58.45 42.90 59.45 44.05Q59.90 44.60 60.55 44.60Q61.20 44.60 61.85 44.35Q63.15 39.30 63.15 33.52Q63.15 27.75 62.20 26.60M59.65 48.30Q55.40 48.30 53.08 45.65Q50.75 43 50.75 38.30Q50.75 33.60 53.98 29.12Q57.20 24.65 61.95 22.30Q66.45 22.30 68.67 24.82Q70.90 27.35 70.90 32.20Q70.90 37.05 67.67 41.55Q64.45 46.05 59.65 48.30ZM75.85 39.85Q75.85 39.10 75.85 37.22Q75.85 35.35 75.70 31.05Q75.55 26.75 75.30 24.80Q73.15 24.35 72.25 23.95L72.25 23.05Q79.70 23.05 83.75 22.30L84.10 22.95Q82.90 26.05 82.90 30.85L82 34.85L82.80 34.90Q83.80 30.30 85.30 27.10Q86.80 23.90 89.70 22.30Q96.20 22.90 96.20 29.70Q96.20 35.75 92.88 40.57Q89.55 45.40 83.80 48.30L82.20 47.90Q82.25 48.75 83.05 54.20L83.35 56.05Q78.10 56.55 73.65 58.30L73.20 57.55Q74.65 55.25 75.13 53.97Q75.60 52.70 75.65 50.40L75.75 47Q74.55 47.10 73.70 47.40L73.20 46.85Q73.95 45.40 75.80 43.20L75.85 39.85M82.90 43.25Q84.35 44.50 85.28 44.50Q86.20 44.50 86.45 44.30Q87.20 41.95 87.75 37.95Q88.30 33.95 88.30 31.07Q88.30 28.20 87.35 27.45Q85.60 29.80 84.45 34.13Q83.30 38.45 82.90 42.55L82.90 43.25ZM101.15 39.85Q101.15 39.10 101.15 37.22Q101.15 35.35 101 31.05Q100.85 26.75 100.60 24.80Q98.45 24.35 97.55 23.95L97.55 23.05Q105 23.05 109.05 22.30L109.40 22.95Q108.20 26.05 108.20 30.85L107.30 34.85L108.10 34.90Q109.10 30.30 110.60 27.10Q112.10 23.90 115 22.30Q121.50 22.90 121.50 29.70Q121.50 35.75 118.18 40.57Q114.85 45.40 109.10 48.30L107.50 47.90Q107.55 48.75 108.35 54.20L108.65 56.05Q103.40 56.55 98.95 58.30L98.50 57.55Q99.95 55.25 100.42 53.97Q100.90 52.70 100.95 50.40L101.05 47Q99.85 47.10 99 47.40L98.50 46.85Q99.25 45.40 101.10 43.20L101.15 39.85M108.20 43.25Q109.65 44.50 110.58 44.50Q111.50 44.50 111.75 44.30Q112.50 41.95 113.05 37.95Q113.60 33.95 113.60 31.07Q113.60 28.20 112.65 27.45Q110.90 29.80 109.75 34.13Q108.60 38.45 108.20 42.55L108.20 43.25ZM131.30 34.70Q131.30 35.35 131.30 37.05Q131.30 38.75 131.72 40.72Q132.15 42.70 133.75 43.15Q135.25 42.15 136.70 40.40Q138.15 38.65 138.85 36.90L140 37.30Q139.10 40.30 136.93 43.42Q134.75 46.55 132.30 48.30Q128.10 48.30 125.80 45.67Q123.50 43.05 123.50 38.95Q123.50 34.85 125.53 31.15Q127.55 27.45 130.97 25.00Q134.40 22.55 138.20 22.30L138.90 22.65Q139 23.40 139.20 25.55Q139.60 29.65 140.25 31.90Q141.30 32.10 142.20 32.50L142.20 33.30Q136.20 33.30 131.30 34.70M133.95 32.40L133.95 25.35Q132.75 25.55 132.07 28.30Q131.40 31.05 131.35 33.20Q132.60 32.70 133.95 32.40ZM156.80 27.85Q155.10 30.25 153.72 35.27Q152.35 40.30 152.35 42.88Q152.35 45.45 152.75 47.55Q148.50 47.55 144.55 48.30L144.25 48.05Q145.25 44.60 145.25 36.35Q145.25 28.10 144.80 24.80Q142.65 24.35 141.75 23.95L141.75 23.05Q149.20 23.05 153.25 22.30L153.60 22.95Q152.40 26.05 152.40 30.85Q152.10 32.55 151.50 34.85L152.30 34.90Q153.15 31.00 154.80 27.47Q156.45 23.95 159 22.30Q161.40 23.25 163.45 23.25L163.75 24.00Q162.65 25.45 161.90 28.12Q161.15 30.80 161 33.05L160.10 33.05Q159.85 32.10 159.55 30.55Q158.70 29.10 156.80 27.85Z"/></g></g></svg>